<svg width="398" height="256" viewBox="0 0 398 256" fill="none" xmlns="http://www.w3.org/2000/svg">
<ellipse cx="199" cy="175.5" rx="229" ry="175.5" fill="url(#paint0_linear_33_54)"/>
<path d="M331.211 222.364H336.474L340.763 263.333H326.854L331.211 222.364Z" fill="#93642D"/>
<path d="M331.174 222.364H336.402L338.675 244.415H328.9L331.174 222.364Z" fill="#714D22"/>
<path d="M349.618 240.672C354.864 241.201 351.388 234.891 348.852 229.281C346.316 223.67 340.829 213.116 332.407 213.116C325.505 213.116 312.428 237.881 315.49 240.211C317.94 242.075 323.692 240.612 327.52 237.678C328.668 240.267 330.402 241.479 333.159 241.686C335.915 241.893 337.523 240.008 339.692 237.678C340.458 238.541 345.041 240.211 349.618 240.672Z" fill="#83C082"/>
<path d="M332.238 214.18C339.997 214.18 345.464 222.426 348.626 228.65C344.513 227.926 340.855 226.513 340.153 225.722C338.448 228.975 336.214 231.909 333.219 231.684C330.225 231.459 328.176 228.535 326.928 225.722C324.374 227.679 321.033 229.031 318.217 229.317C322.354 221.804 328.247 214.18 332.238 214.18Z" fill="#458244"/>
<path d="M349.618 226.416C354.639 228.026 351.388 220.635 348.852 215.024C346.316 209.414 340.829 198.859 332.407 198.859C325.505 198.859 312.428 223.624 315.49 225.954C317.94 227.818 323.692 223.249 327.52 220.315C328.668 222.904 330.402 227.222 333.159 227.429C335.915 227.636 337.523 222.645 339.692 220.315C340.458 221.178 345.041 224.947 349.618 226.416Z" fill="#66A865"/>
<path d="M333.147 197.812C337.221 197.812 340.662 200.088 343.47 203.148C343.614 203.51 343.757 203.854 343.904 204.178C346.059 208.929 348.45 213.748 348.223 213.725C344.334 213.335 339.824 211.618 339.172 210.887C337.839 213.422 335.789 215.038 333.447 214.862C331.104 214.687 328.967 212.736 327.991 210.543C324.737 213.028 318.702 213.952 319.126 213.27C319.846 212.111 320.517 210.829 321.159 209.482C325.041 203.26 329.773 197.813 333.147 197.812Z" fill="#458244"/>
<path d="M347.996 209.633C351.633 210.884 348.919 204.434 346.859 199.858C344.8 195.282 340.724 186.704 333.901 186.219C327.521 185.765 315.956 207.051 318.443 208.951C320.433 210.472 325.702 207.475 328.811 205.081C329.744 207.193 331.152 210.715 333.39 210.884C335.629 211.053 336.934 206.982 338.696 205.081C339.318 205.785 344.753 208.519 347.996 209.633Z" fill="#83C082"/>
<path d="M260.853 203.3C112.823 216.219 -75.2046 191.787 -150.715 177.956V256.457H570.371V138.93C528.877 155.004 408.883 190.381 260.853 203.3Z" fill="#E0FFDF"/>
<path d="M386.021 201.5H392.301L397.418 250.384H380.822L386.021 201.5Z" fill="#E0FFDF"/>
<path d="M385.976 201.5H392.215L394.927 227.811H383.263L385.976 201.5Z" fill="#E0FFDF"/>
<path d="M407.983 223.346C414.244 223.977 410.096 216.448 407.07 209.754C404.044 203.059 397.497 190.465 387.447 190.465C379.213 190.465 363.608 220.015 367.263 222.795C370.186 225.019 377.048 223.274 381.616 219.773C382.987 222.862 385.056 224.308 388.345 224.555C391.633 224.802 393.552 222.553 396.14 219.773C397.054 220.803 402.522 222.795 407.983 223.346Z" fill="#E0FFDF"/>
<path d="M387.246 191.735C396.504 191.735 403.025 201.574 406.799 209C401.891 208.136 397.528 206.451 396.69 205.507C394.655 209.388 391.99 212.89 388.417 212.621C384.844 212.352 382.399 208.863 380.911 205.507C377.863 207.843 373.876 209.457 370.516 209.797C375.452 200.833 382.483 191.736 387.246 191.735Z" fill="#E0FFDF"/>
<path d="M407.983 206.335C413.975 208.256 410.096 199.437 407.07 192.743C404.044 186.048 397.497 173.455 387.447 173.455C379.213 173.455 363.608 203.004 367.263 205.784C370.186 208.009 377.048 202.557 381.616 199.056C382.987 202.145 385.056 207.297 388.345 207.544C391.633 207.792 393.552 201.836 396.14 199.056C397.054 200.086 402.522 204.583 407.983 206.335Z" fill="#E0FFDF"/>
<path d="M388.331 172.206C393.191 172.206 397.296 174.917 400.646 178.566C400.818 178.999 400.99 179.413 401.165 179.8C403.736 185.468 406.588 191.216 406.32 191.193C401.678 190.727 396.296 188.677 395.52 187.805C393.928 190.831 391.483 192.759 388.688 192.549C385.893 192.34 383.343 190.011 382.178 187.395C378.296 190.36 371.096 191.464 371.6 190.651C372.46 189.268 373.26 187.739 374.026 186.133C378.658 178.707 384.305 172.206 388.331 172.206Z" fill="#E0FFDF"/>
<path d="M406.048 186.31C410.388 187.802 407.149 180.107 404.692 174.647C402.234 169.187 397.371 158.951 389.231 158.372C381.618 157.831 367.818 183.229 370.786 185.497C373.16 187.311 379.447 183.734 383.157 180.879C384.27 183.398 385.95 187.601 388.621 187.802C391.292 188.004 392.849 183.147 394.952 180.879C395.693 181.719 402.178 184.98 406.048 186.31Z" fill="#E0FFDF"/>
<path d="M317.837 201.5H324.117L329.235 250.384H312.639L317.837 201.5Z" fill="#E0FFDF"/>
<path d="M317.792 201.5H324.031L326.743 227.811H315.08L317.792 201.5Z" fill="#E0FFDF"/>
<path d="M339.8 223.346C346.06 223.977 341.913 216.448 338.886 209.754C335.86 203.059 329.313 190.465 319.264 190.465C311.029 190.465 295.425 220.015 299.079 222.795C302.003 225.019 308.865 223.274 313.433 219.773C314.803 222.862 316.872 224.308 320.161 224.555C323.45 224.802 325.368 222.553 327.956 219.773C328.87 220.803 334.338 222.795 339.8 223.346Z" fill="#E0FFDF"/>
<path d="M319.062 191.735C328.32 191.735 334.842 201.574 338.616 209C333.708 208.136 329.344 206.451 328.507 205.507C326.472 209.388 323.806 212.89 320.233 212.621C316.66 212.352 314.216 208.863 312.727 205.507C309.68 207.843 305.692 209.457 302.333 209.797C307.269 200.832 314.3 191.736 319.062 191.735Z" fill="#E0FFDF"/>
<path d="M339.8 206.335C345.791 208.256 341.913 199.437 338.886 192.743C335.86 186.048 329.313 173.455 319.264 173.455C311.029 173.455 295.425 203.004 299.079 205.784C302.003 208.009 308.865 202.557 313.433 199.056C314.803 202.145 316.872 207.297 320.161 207.544C323.45 207.792 325.368 201.836 327.956 199.056C328.87 200.086 334.338 204.583 339.8 206.335Z" fill="#E0FFDF"/>
<path d="M320.148 172.206C325.007 172.206 329.112 174.917 332.462 178.566C332.634 178.999 332.806 179.413 332.982 179.8C335.553 185.468 338.405 191.215 338.136 191.193C333.495 190.727 328.113 188.677 327.336 187.805C325.745 190.831 323.299 192.759 320.504 192.549C317.709 192.34 315.159 190.011 313.994 187.395C310.113 190.36 302.912 191.464 303.416 190.651C304.277 189.266 305.079 187.736 305.845 186.128C310.477 178.704 316.123 172.206 320.148 172.206Z" fill="#E0FFDF"/>
<path d="M337.865 186.31C342.205 187.802 338.966 180.107 336.508 174.647C334.051 169.187 329.188 158.951 321.047 158.372C313.435 157.831 299.635 183.229 302.602 185.497C304.977 187.311 311.264 183.734 314.973 180.879C316.086 183.398 317.766 187.601 320.437 187.802C323.108 188.004 324.666 183.147 326.768 180.879C327.51 181.719 333.995 184.98 337.865 186.31Z" fill="#E0FFDF"/>
<path d="M160.235 180.916H169.092L176.31 249.862H152.903L160.235 180.916Z" fill="#E0FFDF"/>
<path d="M160.171 180.916H168.971L172.796 218.025H156.346L160.171 180.916Z" fill="#E0FFDF"/>
<path d="M191.211 211.726C200.041 212.616 194.191 201.998 189.923 192.556C185.655 183.114 176.421 165.352 162.247 165.352C150.633 165.352 128.624 207.029 133.778 210.95C137.902 214.087 147.58 211.625 154.023 206.688C155.956 211.044 158.874 213.084 163.512 213.432C168.151 213.781 170.856 210.609 174.507 206.688C175.796 208.14 183.508 210.95 191.211 211.726Z" fill="#E0FFDF"/>
<path d="M161.963 167.143C175.023 167.143 184.222 181.024 189.544 191.499C182.62 190.281 176.465 187.898 175.283 186.566C172.413 192.041 168.654 196.98 163.614 196.601C158.575 196.222 155.127 191.3 153.027 186.566C148.729 189.861 143.104 192.137 138.366 192.617C145.328 179.973 155.246 167.144 161.963 167.143Z" fill="#E0FFDF"/>
<path d="M191.211 187.734C199.661 190.445 194.191 178.006 189.923 168.564C185.655 159.122 176.421 141.36 162.247 141.36C150.633 141.36 128.624 183.037 133.778 186.958C137.902 190.095 147.58 182.406 154.023 177.468C155.956 181.825 158.874 189.092 163.512 189.44C168.151 189.789 170.856 181.39 174.507 177.468C175.796 178.921 183.508 185.264 191.211 187.734Z" fill="#E0FFDF"/>
<path d="M163.494 139.598C170.347 139.599 176.137 143.421 180.862 148.568C181.105 149.18 181.347 149.763 181.595 150.31C185.222 158.307 189.246 166.416 188.864 166.378C182.317 165.72 174.727 162.83 173.632 161.6C171.388 165.868 167.94 168.586 163.998 168.291C160.055 167.996 156.458 164.712 154.816 161.022C149.341 165.204 139.183 166.761 139.896 165.613C141.109 163.662 142.239 161.504 143.319 159.239C149.852 148.766 157.816 139.598 163.494 139.598Z" fill="#E0FFDF"/>
<path d="M188.481 159.492C194.602 161.596 190.035 150.743 186.569 143.042C183.102 135.34 174.356 123.197 162.874 122.381C152.138 121.618 134.562 155.146 138.748 158.344C142.096 160.903 150.964 155.859 156.196 151.831C157.765 155.385 160.135 161.312 163.902 161.596C167.669 161.88 169.866 155.03 172.831 151.831C173.877 153.016 183.023 157.616 188.481 159.492Z" fill="#E0FFDF"/>
<path d="M162.729 115.114C166.792 115.114 170.482 116.459 173.798 118.626C173.846 118.73 173.896 118.834 173.944 118.94C178.58 129.198 185.802 140.853 185.421 140.746C182.743 139.981 174.196 137.733 172.796 136.155C168.645 141.361 166.675 144.572 164.38 144.572C160.927 144.572 159.53 140.214 155.963 136.155C148.969 141.516 144.112 141.129 144.104 141.129C144.104 141.129 146.689 131.552 151.217 122.89C155.34 118.224 159.422 115.114 162.729 115.114Z" fill="#E0FFDF"/>
<path d="M182.716 135.36C187.895 138.34 184.712 128.705 181.852 122.246C178.993 115.787 172.806 103.637 163.31 103.637C155.529 103.637 140.783 132.146 144.237 134.829C146.999 136.975 153.484 131.715 157.8 128.337C159.095 131.318 161.05 136.289 164.158 136.527C167.266 136.765 169.078 131.02 171.524 128.337C172.387 129.331 178.572 132.976 182.716 135.36Z" fill="#E0FFDF"/>
<rect x="281.036" y="221.818" width="27.4028" height="129.185" fill="#E0FFDF"/>
<path d="M294.371 199.117L372.346 334.173H216.396L294.371 199.117Z" fill="#E0FFDF"/>
<path d="M294.443 148.226L360.552 262.73H228.334L294.443 148.226Z" fill="#E0FFDF"/>
<path d="M319.855 191.832H269.045L261.549 204.326H327.351L319.855 191.832Z" fill="#E0FFDF"/>
<path d="M295.313 101.249L347.861 192.266H242.764L295.313 101.249Z" fill="#E0FFDF"/>
<rect x="-4.24396" y="201.559" width="10.9012" height="51.3915" fill="#E0FFDF"/>
<rect x="-4.21454" y="182.558" width="10.9012" height="51.3915" fill="#E0FFDF"/>
<rect x="-18.1381" y="181.456" width="39.452" height="39.452" rx="19.726" fill="#E0FFDF"/>
<rect x="-16.152" y="156.333" width="36.1039" height="36.1039" rx="18.0519" fill="#E0FFDF"/>
<rect x="-13.5043" y="136.832" width="30.5332" height="30.5332" rx="15.2666" fill="#E0FFDF"/>
<path d="M21.1459 199.049C21.2411 199.834 21.2914 200.635 21.2914 201.446C21.2912 212.34 12.4591 221.172 1.56482 221.172C-9.32922 221.171 -18.1605 212.34 -18.1608 201.446C-18.1608 200.635 -18.1114 199.834 -18.0162 199.049C-16.8334 208.812 -8.51795 216.377 1.56482 216.378C11.6477 216.378 19.963 208.812 21.1459 199.049Z" fill="#E0FFDF"/>
<path d="M91.036 189.666H97.3157L102.434 238.55H85.8373L91.036 189.666Z" fill="#E0FFDF"/>
<path d="M90.991 189.666H97.2297L99.9422 215.977H88.2785L90.991 189.666Z" fill="#E0FFDF"/>
<path d="M79.5615 153.401C86.8486 153.401 92.7567 159.308 92.7568 166.595V167.537C92.7568 168.033 92.728 168.522 92.6748 169.003C98.1671 170.599 102.182 175.668 102.182 181.675V182.617C102.182 189.905 96.2735 195.812 88.9863 195.812C85.0451 195.812 81.5085 194.083 79.0908 191.343C76.6731 194.083 73.1358 195.812 69.1943 195.812C61.9073 195.812 56 189.905 56 182.617V181.675C56 175.338 60.4675 170.044 66.4248 168.772C66.3871 168.365 66.3672 167.953 66.3672 167.537V166.595C66.3674 159.308 72.2746 153.401 79.5615 153.401Z" fill="#E0FFDF"/>
<path d="M78.1954 208.488C72.8161 204.015 72.081 196.029 76.5534 190.649L77.1321 189.953C77.436 189.588 77.7568 189.244 78.0912 188.922C75.0165 184.373 75.1646 178.168 78.8511 173.733L79.4299 173.037C83.9024 167.658 91.8888 166.923 97.2683 171.395C100.179 173.815 101.727 177.263 101.829 180.771C105.296 180.231 108.969 181.123 111.879 183.543C117.258 188.015 117.994 196.002 113.521 201.381L112.942 202.077C109.053 206.755 102.506 207.92 97.3278 205.204C97.1063 205.527 96.8679 205.842 96.6126 206.15L96.0338 206.846C91.5612 212.225 83.5748 212.96 78.1954 208.488Z" fill="#E0FFDF"/>
<path d="M106.213 149.002C113.581 149.002 119.554 154.975 119.554 162.343V163.296C119.554 163.797 119.525 164.291 119.471 164.778C125.025 166.391 129.084 171.517 129.084 177.591V178.543C129.084 185.912 123.111 191.885 115.743 191.885C111.758 191.885 108.181 190.137 105.736 187.367C103.291 190.137 99.7153 191.885 95.7302 191.885C88.3623 191.885 82.3894 185.911 82.3894 178.543V177.591C82.3894 171.184 86.9068 165.831 92.9304 164.544C92.8923 164.134 92.8718 163.717 92.8718 163.296V162.343C92.8721 154.975 98.8448 149.003 106.213 149.002Z" fill="#E0FFDF"/>
<path d="M101.354 130.251C108.722 130.251 114.695 136.223 114.695 143.591V144.545C114.695 145.045 114.666 145.54 114.612 146.026C120.166 147.639 124.225 152.766 124.225 158.839V159.792C124.225 167.16 118.252 173.133 110.884 173.133C106.899 173.133 103.322 171.385 100.877 168.615C98.4325 171.385 94.8563 173.133 90.8713 173.133C83.5033 173.133 77.5305 167.16 77.5305 159.792V158.839C77.5305 152.432 82.0478 147.079 88.0715 145.793C88.0334 145.382 88.0129 144.965 88.0129 144.545V143.591C88.0131 136.224 93.9859 130.251 101.354 130.251Z" fill="#E0FFDF"/>
<path d="M79.8878 138.129C85.9333 138.129 90.8339 143.029 90.8341 149.075V149.857C90.8341 150.269 90.809 150.675 90.7648 151.075C95.3218 152.398 98.6534 156.602 98.6534 161.586V162.368C98.6534 168.413 93.7526 173.314 87.7072 173.314C84.4364 173.314 81.5021 171.878 79.4962 169.604C77.4903 171.878 74.5568 173.314 71.2863 173.314C65.2408 173.314 60.3401 168.413 60.34 162.368V161.586C60.34 156.328 64.0468 151.937 68.9894 150.882C68.9581 150.544 68.9406 150.203 68.9406 149.857V149.075C68.9408 143.029 73.8423 138.129 79.8878 138.129Z" fill="#E0FFDF"/>
<path d="M103.674 154C99.2795 158.152 92.3517 157.956 88.1994 153.562L87.6622 152.993C87.3794 152.694 87.1187 152.381 86.8762 152.06C82.655 154.228 77.3466 153.461 73.9235 149.839L73.3863 149.27C69.2342 144.876 69.4305 137.948 73.8244 133.796C76.2018 131.55 79.3206 130.578 82.3405 130.853C82.2367 127.823 83.3826 124.764 85.7598 122.518C90.154 118.366 97.0818 118.562 101.234 122.956L101.771 123.525C105.382 127.346 105.703 133.083 102.835 137.245C103.09 137.469 103.338 137.705 103.575 137.956L104.112 138.525C108.264 142.919 108.068 149.848 103.674 154Z" fill="#E0FFDF"/>
<path d="M127.884 172.304C128.654 173.99 129.084 175.863 129.084 177.838V178.79C129.084 185.95 123.444 191.791 116.364 192.116C116.735 195.422 115.816 198.868 113.521 201.628L112.942 202.323C109.053 207.001 102.507 208.166 97.3281 205.45C97.1066 205.773 96.8677 206.089 96.6123 206.396L96.0342 207.092C91.5616 212.471 83.5747 213.207 78.1953 208.734C74.0834 205.315 72.6849 199.843 74.252 195.052C72.6942 195.699 70.9864 196.058 69.1943 196.058C61.9074 196.058 56.0002 190.151 56 182.864V181.922C56 179.155 56.8514 176.587 58.3066 174.467C60.4029 178.98 64.9755 182.109 70.2793 182.109C72.6599 182.109 74.8923 181.477 76.8203 180.374C76.6717 184.174 78.2276 187.999 81.3779 190.618C86.7573 195.09 94.7432 194.355 99.2158 188.976L99.7949 188.28C100.05 187.973 100.288 187.657 100.51 187.334C105.688 190.05 112.235 188.885 116.124 184.208L116.703 183.511C118.09 181.843 118.975 179.924 119.377 177.937C122.908 177.254 125.94 175.178 127.884 172.304Z" fill="#E0FFDF"/>
<path d="M31.6781 197.143H37.9578L43.0758 246.027H26.4794L31.6781 197.143Z" fill="#E0FFDF"/>
<path d="M31.6331 197.143H37.8718L40.5843 223.454H28.9207L31.6331 197.143Z" fill="#E0FFDF"/>
<path d="M20.2037 160.878C27.4909 160.878 33.3989 166.785 33.399 174.072V175.015C33.399 175.51 33.3702 175.999 33.317 176.481C38.8093 178.076 42.8239 183.145 42.8239 189.153V190.095C42.8238 197.382 36.9158 203.289 29.6285 203.289C25.6873 203.289 22.1507 201.56 19.733 198.821C17.3153 201.561 13.778 203.289 9.83655 203.289C2.54949 203.289 -3.35777 197.382 -3.35779 190.095V189.153C-3.35779 182.815 1.10972 177.522 7.06702 176.249C7.02934 175.843 7.0094 175.431 7.0094 175.015V174.072C7.00957 166.786 12.9168 160.878 20.2037 160.878Z" fill="#E0FFDF"/>
<path d="M18.8376 215.965C13.4583 211.493 12.7232 203.506 17.1956 198.127L17.7743 197.431C18.0782 197.065 18.399 196.722 18.7334 196.399C15.6587 191.851 15.8068 185.645 19.4933 181.211L20.0721 180.515C24.5446 175.135 32.5311 174.4 37.9105 178.873C40.8209 181.292 42.3687 184.741 42.471 188.248C45.9382 187.709 49.611 188.6 52.5212 191.02C57.9005 195.493 58.6357 203.479 54.1633 208.859L53.5845 209.555C49.6951 214.232 43.1487 215.398 37.97 212.681C37.7485 213.004 37.5102 213.32 37.2548 213.627L36.676 214.323C32.2034 219.702 24.217 220.438 18.8376 215.965Z" fill="#E0FFDF"/>
<path d="M46.8549 156.48C54.2229 156.48 60.1964 162.453 60.1967 169.821V170.774C60.1967 171.275 60.1674 171.769 60.1136 172.255C65.6671 173.869 69.726 178.995 69.726 185.069V186.021C69.726 193.389 63.7532 199.363 56.3851 199.363C52.3998 199.363 48.8229 197.615 46.3783 194.844C43.9337 197.614 40.3575 199.363 36.3724 199.363C29.0045 199.362 23.0316 193.389 23.0316 186.021V185.069C23.0316 178.661 27.549 173.309 33.5726 172.022C33.5345 171.611 33.514 171.195 33.514 170.774V169.821C33.5143 162.453 39.487 156.48 46.8549 156.48Z" fill="#E0FFDF"/>
<path d="M41.9959 137.728C49.364 137.728 55.3375 143.701 55.3377 151.069V152.022C55.3377 152.523 55.3084 153.017 55.2547 153.503C60.8082 155.117 64.867 160.243 64.867 166.317V167.269C64.867 174.637 58.8943 180.611 51.5262 180.611C47.5409 180.611 43.964 178.863 41.5193 176.092C39.0747 178.862 35.4985 180.611 31.5135 180.611C24.1455 180.611 18.1727 174.637 18.1727 167.269V166.317C18.1727 159.909 22.69 154.557 28.7137 153.27C28.6756 152.859 28.6551 152.443 28.6551 152.022V151.069C28.6553 143.701 34.6281 137.728 41.9959 137.728Z" fill="#E0FFDF"/>
<path d="M20.53 145.606C26.5755 145.606 31.4761 150.507 31.4763 156.552V157.335C31.4763 157.746 31.4513 158.153 31.407 158.552C35.964 159.876 39.2956 164.079 39.2957 169.063V169.845C39.2956 175.891 34.3948 180.791 28.3494 180.792C25.0786 180.792 22.1443 179.356 20.1384 177.082C18.1325 179.356 15.199 180.792 11.9285 180.792C5.88301 180.791 0.982264 175.891 0.982178 169.845V169.063C0.982253 163.806 4.68902 159.415 9.63159 158.359C9.60029 158.022 9.58276 157.68 9.58276 157.335V156.552C9.58299 150.507 14.4845 145.606 20.53 145.606Z" fill="#E0FFDF"/>
<path d="M44.3158 161.477C39.9217 165.629 32.9939 165.433 28.8416 161.039L28.3044 160.471C28.0216 160.171 27.7609 159.859 27.5184 159.538C23.2972 161.706 17.9888 160.939 14.5657 157.316L14.0285 156.748C9.87643 152.354 10.0727 145.426 14.4667 141.274C16.844 139.027 19.9628 138.055 22.9827 138.331C22.8789 135.3 24.0248 132.242 26.402 129.996C30.7962 125.844 37.724 126.04 41.8762 130.434L42.4134 131.002C46.0242 134.824 46.345 140.56 43.4777 144.722C43.7323 144.946 43.98 145.183 44.2174 145.434L44.7547 146.002C48.9066 150.397 48.7099 157.325 44.3158 161.477Z" fill="#E0FFDF"/>
<path d="M68.526 179.782C69.2959 181.468 69.7262 183.341 69.7262 185.315V186.267C69.7262 193.427 64.086 199.269 57.0065 199.593C57.3773 202.899 56.4583 206.345 54.1637 209.105L53.5846 209.8C49.6952 214.478 43.149 215.644 37.9703 212.927C37.7488 213.25 37.5099 213.567 37.2545 213.874L36.6764 214.569C32.2038 219.948 24.2169 220.684 18.8375 216.212C14.7255 212.793 13.3271 207.32 14.8942 202.529C13.3364 203.176 11.6287 203.536 9.83655 203.536C2.54959 203.536 -3.35762 197.628 -3.35779 190.342V189.399C-3.35778 186.633 -2.50638 184.065 -1.05115 181.944C1.04508 186.457 5.61769 189.586 10.9215 189.587C13.3021 189.587 15.5345 188.954 17.4625 187.851C17.3139 191.652 18.8698 195.476 22.0201 198.095C27.3995 202.568 35.3854 201.833 39.858 196.454L40.4371 195.758C40.6924 195.45 40.9305 195.134 41.152 194.811C46.3305 197.528 52.8768 196.363 56.7662 191.685L57.3453 190.989C58.7321 189.321 59.617 187.402 60.0192 185.415C63.55 184.731 66.5822 182.655 68.526 179.782Z" fill="#E0FFDF"/>
<path d="M354.105 209.911H363.265L370.73 281.215H346.522L354.105 209.911Z" fill="#E0FFDF"/>
<path d="M354.039 209.911H363.139L367.096 248.289H350.083L354.039 209.911Z" fill="#E0FFDF"/>
<path d="M337.368 157.013C347.998 157.013 356.615 165.63 356.615 176.259V177.634C356.615 178.357 356.573 179.07 356.495 179.772C364.507 182.099 370.362 189.493 370.362 198.255V199.63C370.362 210.259 361.745 218.876 351.116 218.876C345.367 218.876 340.207 216.354 336.681 212.358C333.154 216.354 327.995 218.876 322.246 218.876C311.617 218.876 303 210.259 303 199.63V198.255C303 189.012 309.516 181.29 318.206 179.434C318.151 178.841 318.122 178.241 318.122 177.634V176.259C318.122 165.63 326.739 157.013 337.368 157.013Z" fill="#E0FFDF"/>
<path d="M335.376 237.366C327.529 230.842 326.456 219.192 332.98 211.345L333.824 210.33C334.267 209.797 334.736 209.296 335.224 208.826C330.739 202.191 330.954 193.138 336.332 186.67L337.176 185.656C343.7 177.809 355.349 176.737 363.196 183.26C367.44 186.789 369.701 191.817 369.852 196.931C374.908 196.146 380.264 197.451 384.508 200.98C392.354 207.503 393.427 219.153 386.903 226.999L386.059 228.014C380.386 234.838 370.836 236.537 363.282 232.574C362.959 233.046 362.612 233.507 362.24 233.955L361.395 234.971C354.872 242.817 343.222 243.889 335.376 237.366Z" fill="#E0FFDF"/>
<path d="M376.243 150.597C386.99 150.597 395.704 159.31 395.704 170.057V171.448C395.704 172.179 395.661 172.9 395.583 173.609C403.683 175.963 409.603 183.438 409.603 192.298V193.688C409.603 204.436 400.891 213.148 390.143 213.148C384.33 213.148 379.113 210.598 375.547 206.557C371.982 210.598 366.765 213.148 360.953 213.148C350.205 213.148 341.493 204.436 341.493 193.688V192.298C341.493 182.952 348.082 175.145 356.868 173.268C356.812 172.669 356.783 172.062 356.783 171.448V170.057C356.783 159.31 365.495 150.598 376.243 150.597Z" fill="#E0FFDF"/>
<path d="M369.155 123.245C379.903 123.245 388.616 131.958 388.616 142.705V144.096C388.616 144.826 388.574 145.547 388.495 146.257C396.595 148.61 402.516 156.086 402.516 164.945V166.336C402.515 177.083 393.803 185.796 383.056 185.796C377.243 185.796 372.026 183.246 368.46 179.205C364.894 183.246 359.678 185.796 353.865 185.796C343.118 185.796 334.405 177.083 334.405 166.336V164.945C334.405 155.599 340.994 147.793 349.78 145.916C349.725 145.317 349.695 144.71 349.695 144.096V142.705C349.695 131.958 358.408 123.245 369.155 123.245Z" fill="#E0FFDF"/>
<path d="M337.843 134.737C346.662 134.737 353.811 141.886 353.811 150.704V151.844C353.811 152.443 353.777 153.035 353.712 153.617C360.359 155.549 365.216 161.683 365.216 168.952V170.093C365.216 178.911 358.067 186.06 349.248 186.06C344.479 186.06 340.199 183.968 337.273 180.653C334.347 183.968 330.068 186.06 325.298 186.06C316.48 186.06 309.331 178.911 309.331 170.093V168.952C309.331 161.284 314.737 154.877 321.946 153.337C321.9 152.846 321.876 152.347 321.876 151.844V150.704C321.876 141.886 329.025 134.737 337.843 134.737Z" fill="#E0FFDF"/>
<path d="M372.539 157.887C366.129 163.943 356.023 163.657 349.967 157.247L349.183 156.418C348.772 155.983 348.391 155.529 348.038 155.062C341.88 158.223 334.136 157.101 329.144 151.817L328.36 150.988C322.304 144.578 322.591 134.473 329 128.416C332.467 125.14 337.015 123.721 341.418 124.121C341.268 119.702 342.942 115.242 346.408 111.967C352.818 105.91 362.924 106.196 368.98 112.605L369.764 113.434C375.031 119.008 375.5 127.377 371.319 133.448C371.689 133.774 372.049 134.119 372.394 134.485L373.178 135.314C379.234 141.724 378.948 151.83 372.539 157.887Z" fill="#E0FFDF"/>
<path d="M407.856 184.588C408.977 187.046 409.604 189.779 409.604 192.658V194.048C409.603 204.49 401.379 213.01 391.055 213.486C391.595 218.307 390.249 223.333 386.902 227.359L386.06 228.373C380.386 235.197 370.836 236.897 363.282 232.934C362.959 233.405 362.612 233.867 362.239 234.315L361.396 235.33C354.872 243.176 343.223 244.248 335.376 237.725C329.378 232.738 327.337 224.757 329.622 217.768C327.35 218.712 324.86 219.236 322.246 219.236C311.617 219.236 303 210.619 303 199.99V198.615C303 194.579 304.243 190.834 306.365 187.74C309.423 194.323 316.092 198.889 323.829 198.889C327.3 198.889 330.556 197.968 333.367 196.36C333.151 201.902 335.423 207.481 340.018 211.301C347.864 217.824 359.513 216.752 366.037 208.906L366.882 207.891C367.254 207.443 367.601 206.981 367.924 206.51C375.478 210.473 385.028 208.773 390.701 201.95L391.545 200.935C393.568 198.502 394.859 195.702 395.445 192.804C400.595 191.807 405.02 188.779 407.856 184.588Z" fill="#E0FFDF"/>
<rect x="188.979" y="161.029" width="45.3274" height="45.3274" rx="22.6637" fill="#E0FFDF"/>
<path d="M222.974 176.138C222.974 169.88 228.048 164.806 234.306 164.806C234.306 171.065 229.233 176.138 222.974 176.138Z" fill="#E0FFDF"/>
<path d="M205.194 172.118C199.383 171.57 195.117 166.415 195.665 160.604C201.476 161.152 205.742 166.307 205.194 172.118Z" fill="#E0FFDF"/>
<path d="M196.345 191.027C191.876 194.781 185.21 194.202 181.455 189.733C185.924 185.979 192.591 186.558 196.345 191.027Z" fill="#E0FFDF"/>
<path d="M238.385 194.636C233.916 198.391 227.25 197.812 223.495 193.343C227.964 189.588 234.63 190.168 238.385 194.636Z" fill="#E0FFDF"/>
<rect x="261.504" y="190.58" width="45.3274" height="45.3274" rx="22.6637" transform="rotate(119.838 261.504 190.58)" fill="#E0FFDF"/>
<path d="M231.483 212.552C236.912 215.665 238.789 222.591 235.675 228.019C230.246 224.905 228.369 217.98 231.483 212.552Z" fill="#E0FFDF"/>
<path d="M243.817 199.129C247.184 194.361 253.778 193.224 258.546 196.591C255.179 201.359 248.585 202.495 243.817 199.129Z" fill="#E0FFDF"/>
<path d="M231.818 182.045C230.784 176.3 234.604 170.806 240.348 169.772C241.381 175.517 237.562 181.011 231.818 182.045Z" fill="#E0FFDF"/>
<path d="M207.77 216.716C206.737 210.971 210.556 205.477 216.3 204.443C217.334 210.188 213.514 215.682 207.77 216.716Z" fill="#E0FFDF"/>
<rect x="283.034" y="174.432" width="45.3274" height="45.3274" rx="22.6637" transform="rotate(119.838 283.034 174.432)" fill="#E0FFDF"/>
<path d="M253.014 196.404C258.443 199.518 260.319 206.443 257.205 211.872C251.777 208.758 249.9 201.833 253.014 196.404Z" fill="#E0FFDF"/>
<path d="M265.347 182.981C268.714 178.213 275.308 177.077 280.076 180.443C276.71 185.211 270.115 186.347 265.347 182.981Z" fill="#E0FFDF"/>
<path d="M253.348 165.897C252.315 160.152 256.134 154.658 261.878 153.625C262.912 159.369 259.093 164.864 253.348 165.897Z" fill="#E0FFDF"/>
<path d="M229.3 200.568C228.267 194.823 232.086 189.329 237.831 188.295C238.864 194.04 235.045 199.535 229.3 200.568Z" fill="#E0FFDF"/>
<rect x="271.769" y="153.733" width="42.4276" height="42.4276" rx="21.2138" transform="rotate(119.838 271.769 153.733)" fill="#E0FFDF"/>
<path d="M243.669 174.299C248.751 177.213 250.507 183.695 247.593 188.777C242.511 185.862 240.755 179.38 243.669 174.299Z" fill="#E0FFDF"/>
<path d="M255.214 161.734C258.365 157.271 264.538 156.208 269.001 159.359C265.849 163.822 259.677 164.886 255.214 161.734Z" fill="#E0FFDF"/>
<path d="M243.982 145.743C243.015 140.366 246.59 135.223 251.967 134.256C252.934 139.633 249.359 144.776 243.982 145.743Z" fill="#E0FFDF"/>
<path d="M221.473 178.196C220.506 172.819 224.081 167.676 229.458 166.709C230.425 172.086 226.85 177.229 221.473 178.196Z" fill="#E0FFDF"/>
<path d="M272.9 173.848C273.572 175.385 274.074 176.992 274.392 178.637C276.381 178.704 278.372 179.331 280.119 180.564C278.751 182.502 276.849 183.84 274.754 184.52C274.524 187.83 273.562 191.141 271.801 194.213C268.789 199.463 263.994 203.052 258.618 204.654C258.991 207.099 258.574 209.681 257.248 211.993C254.805 210.592 253.083 208.418 252.21 205.957C251.73 207.46 251.087 208.937 250.27 210.361C247.259 215.612 242.465 219.2 237.089 220.803C237.461 223.247 237.043 225.829 235.718 228.141C233.158 226.673 231.389 224.357 230.559 221.751C226.745 221.746 222.88 220.778 219.335 218.744C217.043 217.43 215.07 215.774 213.438 213.881C211.962 215.37 210.032 216.438 207.812 216.837C207.252 213.724 208.119 210.685 209.944 208.389C209.642 207.717 209.374 207.031 209.139 206.335C201.187 205.446 194.478 200.444 191.191 193.504C187.668 194.041 183.958 192.783 181.498 189.855C183.759 187.955 186.584 187.167 189.308 187.429C189.12 186.252 189.021 185.045 189.021 183.814C189.021 181.72 189.306 179.693 189.838 177.768C193.299 185.653 201.121 191.19 210.253 191.327C212.183 194.618 214.971 197.466 218.517 199.5C229.375 205.728 243.225 201.975 249.453 191.117C249.584 190.888 249.709 190.656 249.832 190.425C258.102 190.866 266.313 186.742 270.716 179.067C271.68 177.386 272.404 175.633 272.9 173.848Z" fill="#E0FFDF"/>
<path d="M231.181 200.969H237.461L242.579 249.853H225.982L231.181 200.969Z" fill="#E0FFDF"/>
<path d="M231.136 200.969H237.506L240.203 227.28H228.424L231.136 200.969Z" fill="#E0FFDF"/>
<path fill-rule="evenodd" clip-rule="evenodd" d="M229.417 221.799C219.596 214.728 218.403 204.103 219.09 199.466L223.527 200.123C223.018 203.559 223.917 212.312 232.038 218.159L229.417 221.799Z" fill="#E0FFDF"/>
<path fill-rule="evenodd" clip-rule="evenodd" d="M236.835 214.622C246.656 207.551 247.85 196.927 247.163 192.289L242.726 192.946C243.235 196.382 242.335 205.135 234.214 210.982L236.835 214.622Z" fill="#E0FFDF"/>
<rect x="253.869" y="183.831" width="32.4799" height="32.4799" rx="16.2399" transform="rotate(119.838 253.869 183.831)" fill="#E0FFDF"/>
<path d="M232.357 199.575C236.247 201.806 237.592 206.768 235.361 210.658C231.471 208.427 230.126 203.465 232.357 199.575Z" fill="#E0FFDF"/>
<path d="M241.195 189.956C243.607 186.54 248.333 185.725 251.749 188.138C249.337 191.554 244.612 192.368 241.195 189.956Z" fill="#E0FFDF"/>
<path d="M232.597 177.714C231.856 173.598 234.593 169.661 238.709 168.921C239.45 173.037 236.713 176.974 232.597 177.714Z" fill="#E0FFDF"/>
<path d="M215.365 202.558C214.624 198.442 217.361 194.505 221.477 193.764C222.218 197.881 219.481 201.818 215.365 202.558Z" fill="#E0FFDF"/>
<rect x="200.676" y="131.874" width="42.4276" height="42.4276" rx="21.2138" transform="rotate(8.46442 200.676 131.874)" fill="#E0FFDF"/>
<path d="M230.068 150.546C230.93 144.752 236.327 140.754 242.121 141.616C241.258 147.411 235.862 151.409 230.068 150.546Z" fill="#E0FFDF"/>
<path d="M214.161 144.375C208.856 143.067 205.616 137.706 206.924 132.402C212.229 133.71 215.468 139.07 214.161 144.375Z" fill="#E0FFDF"/>
<path d="M203.363 160.662C198.708 163.522 192.616 162.067 189.756 157.413C194.41 154.552 200.502 156.007 203.363 160.662Z" fill="#E0FFDF"/>
<path d="M241.787 169.796C237.132 172.656 231.04 171.201 228.18 166.547C232.835 163.686 238.927 165.141 241.787 169.796Z" fill="#E0FFDF"/>
<path d="M276.559 216.233H281.523L285.568 254.87H272.45L276.559 216.233Z" fill="#E0FFDF"/>
<path d="M276.524 216.233H281.455L283.599 237.029H274.38L276.524 216.233Z" fill="#E0FFDF"/>
<path d="M293.918 233.499C298.866 233.998 295.588 228.047 293.196 222.756C290.804 217.465 285.63 207.511 277.687 207.511C271.178 207.511 258.845 230.867 261.733 233.064C264.044 234.822 269.468 233.442 273.078 230.675C274.161 233.117 275.796 234.26 278.396 234.455C280.995 234.65 282.511 232.873 284.557 230.675C285.279 231.489 289.601 233.064 293.918 233.499Z" fill="#E0FFDF"/>
<path d="M277.528 208.515C284.845 208.515 290 216.291 292.983 222.16C289.104 221.478 285.654 220.146 284.992 219.399C283.384 222.467 281.277 225.235 278.453 225.022C275.629 224.81 273.697 222.052 272.52 219.399C270.111 221.246 266.96 222.521 264.304 222.79C268.206 215.705 273.764 208.515 277.528 208.515Z" fill="#E0FFDF"/>
<path d="M293.918 220.054C298.654 221.573 295.588 214.602 293.196 209.311C290.804 204.02 285.63 194.066 277.687 194.066C271.178 194.066 258.845 217.421 261.733 219.619C264.044 221.377 269.468 217.068 273.078 214.301C274.161 216.743 275.796 220.815 278.396 221.01C280.995 221.205 282.511 216.498 284.557 214.301C285.279 215.115 289.601 218.669 293.918 220.054Z" fill="#E0FFDF"/>
<path d="M278.385 193.079C282.228 193.079 285.472 195.224 288.121 198.11C288.256 198.451 288.392 198.776 288.53 199.081C290.562 203.562 292.817 208.106 292.603 208.086C288.935 207.718 284.681 206.098 284.067 205.409C282.809 207.8 280.877 209.323 278.668 209.158C276.458 208.992 274.443 207.152 273.522 205.084C270.454 207.428 264.761 208.3 265.161 207.657C265.841 206.563 266.475 205.354 267.081 204.083C270.742 198.215 275.204 193.079 278.385 193.079Z" fill="#E0FFDF"/>
<path d="M292.389 204.227C295.819 205.406 293.259 199.324 291.317 195.008C289.374 190.692 285.531 182.602 279.096 182.145C273.079 181.717 262.172 201.791 264.518 203.584C266.394 205.017 271.364 202.191 274.296 199.934C275.175 201.925 276.503 205.247 278.614 205.406C280.725 205.565 281.957 201.726 283.618 199.934C284.204 200.598 289.33 203.176 292.389 204.227Z" fill="#E0FFDF"/>
<rect x="18.4504" y="189.941" width="28.6924" height="28.6924" rx="14.3462" fill="#E0FFDF"/>
<path d="M39.9697 199.505C39.9697 195.543 43.1812 192.332 47.1428 192.332C47.1428 196.293 43.9313 199.505 39.9697 199.505Z" fill="#E0FFDF"/>
<path d="M28.7148 196.96C25.0365 196.613 22.3357 193.35 22.6826 189.672C26.3609 190.019 29.0616 193.282 28.7148 196.96Z" fill="#E0FFDF"/>
<path d="M23.1134 208.929C20.2846 211.306 16.0648 210.939 13.6881 208.111C16.5169 205.734 20.7368 206.101 23.1134 208.929Z" fill="#E0FFDF"/>
<path d="M49.7247 211.214C46.8959 213.591 42.676 213.224 40.2994 210.395C43.1282 208.019 47.348 208.385 49.7247 211.214Z" fill="#E0FFDF"/>
<rect x="64.3591" y="208.647" width="28.6924" height="28.6924" rx="14.3462" transform="rotate(119.838 64.3591 208.647)" fill="#E0FFDF"/>
<path d="M45.356 222.555C48.7924 224.526 49.9803 228.909 48.0092 232.346C44.5728 230.375 43.3849 225.991 45.356 222.555Z" fill="#E0FFDF"/>
<path d="M53.1632 214.058C55.2942 211.04 59.4684 210.32 62.4866 212.451C60.3556 215.47 56.1814 216.189 53.1632 214.058Z" fill="#E0FFDF"/>
<path d="M45.5676 203.244C44.9135 199.607 47.331 196.129 50.9673 195.475C51.6215 199.112 49.2039 202.59 45.5676 203.244Z" fill="#E0FFDF"/>
<path d="M30.3453 225.191C29.6912 221.554 32.1087 218.076 35.745 217.422C36.3991 221.058 33.9816 224.536 30.3453 225.191Z" fill="#E0FFDF"/>
<rect x="77.133" y="202.077" width="28.6924" height="28.6924" rx="14.3462" transform="rotate(119.838 77.133 202.077)" fill="#E0FFDF"/>
<path d="M58.1298 215.985C61.5663 217.956 62.7542 222.34 60.7831 225.777C57.3467 223.805 56.1588 219.422 58.1298 215.985Z" fill="#E0FFDF"/>
<path d="M65.9371 207.489C68.0681 204.47 72.2424 203.751 75.2605 205.882C73.1295 208.9 68.9553 209.62 65.9371 207.489Z" fill="#E0FFDF"/>
<path d="M43.1191 218.621C42.465 214.985 44.8826 211.507 48.5189 210.853C49.173 214.489 46.7554 217.967 43.1191 218.621Z" fill="#E0FFDF"/>
<path d="M56.7208 182.822C63.154 186.512 65.3778 194.719 61.6878 201.152C57.9979 207.585 49.7915 209.809 43.3583 206.119C36.9251 202.429 34.7013 194.222 38.3912 187.789C42.0812 181.356 50.2876 179.132 56.7208 182.822Z" fill="#E0FFDF"/>
<path d="M51.3355 202.351C54.5521 204.196 55.664 208.299 53.819 211.516C50.6025 209.671 49.4905 205.568 51.3355 202.351Z" fill="#E0FFDF"/>
<path d="M58.6433 194.398C60.6379 191.573 64.5451 190.9 67.3702 192.894C65.3755 195.72 61.4683 196.393 58.6433 194.398Z" fill="#E0FFDF"/>
<path d="M51.5336 184.276C50.9213 180.872 53.1842 177.617 56.5879 177.004C57.2001 180.408 54.9373 183.664 51.5336 184.276Z" fill="#E0FFDF"/>
<path d="M37.2851 204.819C36.6729 201.415 38.9357 198.159 42.3394 197.547C42.9517 200.951 40.6888 204.206 37.2851 204.819Z" fill="#E0FFDF"/>
<rect x="27.2429" y="180.867" width="26.8568" height="26.8568" rx="13.4284" transform="rotate(8.46442 27.2429 180.867)" fill="#E0FFDF"/>
<path d="M45.8484 192.686C46.3943 189.019 49.81 186.488 53.4778 187.033C52.932 190.701 49.5162 193.232 45.8484 192.686Z" fill="#E0FFDF"/>
<path d="M35.7789 188.78C32.4211 187.952 30.3703 184.559 31.1982 181.201C34.5559 182.029 36.6068 185.422 35.7789 188.78Z" fill="#E0FFDF"/>
<path d="M28.9438 199.089C25.9974 200.9 22.141 199.979 20.3304 197.033C23.2769 195.222 27.1332 196.143 28.9438 199.089Z" fill="#E0FFDF"/>
<path d="M53.2666 204.871C50.3201 206.682 46.4638 205.761 44.6532 202.815C47.5996 201.004 51.456 201.925 53.2666 204.871Z" fill="#E0FFDF"/>
<rect x="64.9019" y="197.933" width="26.8568" height="26.8568" rx="13.4284" transform="rotate(119.838 64.9019 197.933)" fill="#E0FFDF"/>
<path d="M47.1145 210.951C50.3311 212.796 51.443 216.899 49.598 220.116C46.3814 218.271 45.2695 214.167 47.1145 210.951Z" fill="#E0FFDF"/>
<path d="M54.4223 202.998C56.4169 200.173 60.3241 199.499 63.1492 201.494C61.1545 204.319 57.2473 204.992 54.4223 202.998Z" fill="#E0FFDF"/>
<path d="M47.3126 192.875C46.7003 189.472 48.9632 186.216 52.3669 185.604C52.9791 189.008 50.7163 192.263 47.3126 192.875Z" fill="#E0FFDF"/>
<path d="M33.0641 213.418C32.4518 210.014 34.7147 206.759 38.1184 206.147C38.7307 209.55 36.4678 212.806 33.0641 213.418Z" fill="#E0FFDF"/>
<path d="M70.386 200.813C71.0087 202.026 71.4558 203.32 71.7142 204.653C72.9728 204.696 74.2335 205.094 75.3392 205.874C74.4732 207.101 73.2697 207.947 71.9437 208.377C71.7986 210.473 71.1889 212.569 70.0735 214.514C68.1672 217.837 65.1328 220.109 61.7298 221.123C61.9657 222.671 61.7009 224.305 60.8616 225.769C59.2416 224.839 58.1221 223.373 57.597 221.724C57.3716 221.723 57.146 221.717 56.9202 221.706C55.0036 224.691 52.1412 226.742 48.9554 227.692C49.1915 229.239 48.9276 230.875 48.0882 232.338C46.4678 231.409 45.3476 229.942 44.8226 228.292C42.4082 228.289 39.9614 227.677 37.7171 226.39C36.2668 225.558 35.0174 224.51 33.9847 223.312C33.0505 224.254 31.8291 224.93 30.4241 225.183C30.0696 223.212 30.6184 221.288 31.7737 219.834C31.5827 219.409 31.4117 218.975 31.263 218.534C26.2296 217.971 21.9833 214.805 19.9026 210.412C17.6726 210.752 15.3241 209.956 13.7669 208.103C15.1985 206.9 16.9863 206.401 18.7112 206.567C18.6751 206.341 18.645 206.113 18.6194 205.884C19.867 206.345 21.2155 206.599 22.6234 206.599C24.9729 206.599 27.1568 205.894 28.9798 204.689C28.455 208.373 29.7963 212.235 32.8675 214.788C37.5756 218.702 44.5654 218.059 48.4798 213.351L48.9857 212.741C49.2092 212.472 49.4177 212.195 49.6116 211.912C54.1442 214.29 59.8735 213.271 63.2776 209.177L63.7845 208.568C65.2049 206.859 66.0215 204.85 66.265 202.796C67.7789 202.409 69.1742 201.726 70.386 200.813Z" fill="#E0FFDF"/>
<path d="M42.1656 217.801H46.6677L50.3369 252.847H38.4385L42.1656 217.801Z" fill="#E0FFDF"/>
<path d="M42.1334 217.801H46.6999L48.6333 236.664H40.1887L42.1334 217.801Z" fill="#E0FFDF"/>
<path fill-rule="evenodd" clip-rule="evenodd" d="M46.219 227.59C53.2599 222.52 54.1157 214.903 53.6231 211.578L50.4421 212.05C50.807 214.513 50.1622 220.788 44.34 224.98L46.219 227.59Z" fill="#E0FFDF"/>
<rect x="27.9515" y="205.903" width="24.9141" height="24.9141" rx="12.4571" transform="rotate(-37.5969 27.9515 205.903)" fill="#E0FFDF"/>
<path d="M47.8232 201.083C45.7245 198.357 46.2327 194.446 48.9582 192.347C51.0569 195.073 50.5488 198.984 47.8232 201.083Z" fill="#E0FFDF"/>
<path d="M38.7318 205.294C36.0174 207.004 32.4307 206.19 30.7207 203.476C33.4351 201.766 37.0218 202.58 38.7318 205.294Z" fill="#E0FFDF"/>
<path d="M41.219 216.496C40.5319 219.63 37.4345 221.613 34.3008 220.926C34.9879 217.792 38.0853 215.809 41.219 216.496Z" fill="#E0FFDF"/>
<path d="M60.7377 203.971C60.0506 207.104 56.9532 209.088 53.8195 208.4C54.5066 205.267 57.604 203.283 60.7377 203.971Z" fill="#E0FFDF"/>
<rect x="28.8438" y="181.288" width="19.6084" height="19.6084" rx="9.8042" transform="rotate(8.46442 28.8438 181.288)" fill="#E0FFDF"/>
<path d="M42.4278 189.917C42.8264 187.239 45.3203 185.392 47.9981 185.79C47.5996 188.468 45.1057 190.316 42.4278 189.917Z" fill="#E0FFDF"/>
<path d="M35.076 187.065C32.6245 186.46 31.1272 183.983 31.7316 181.532C34.1831 182.136 35.6805 184.613 35.076 187.065Z" fill="#E0FFDF"/>
<path d="M30.0857 194.592C27.9345 195.914 25.1189 195.242 23.797 193.091C25.9482 191.769 28.7637 192.441 30.0857 194.592Z" fill="#E0FFDF"/>
<path d="M47.8439 198.813C45.6926 200.135 42.8771 199.463 41.5551 197.312C43.7064 195.99 46.5219 196.662 47.8439 198.813Z" fill="#E0FFDF"/>
<path d="M201.007 205.112H208.43L214.48 262.895H194.862L201.007 205.112Z" fill="#93642D"/>
<path d="M200.954 205.112H208.329L211.535 236.213H197.748L200.954 205.112Z" fill="#714D22"/>
<path d="M226.968 230.934C234.368 231.68 229.465 222.781 225.888 214.868C222.311 206.955 214.572 192.069 202.694 192.069C192.96 192.069 174.515 226.997 178.835 230.283C182.29 232.912 190.402 230.849 195.801 226.711C197.421 230.363 199.867 232.072 203.754 232.364C207.642 232.656 209.909 229.997 212.969 226.711C214.049 227.928 220.512 230.283 226.968 230.934Z" fill="#66A865"/>
<path d="M202.456 193.57C213.401 193.57 221.111 205.203 225.571 213.982C219.768 212.961 214.609 210.964 213.619 209.848C211.214 214.436 208.063 218.575 203.84 218.257C199.616 217.94 196.727 213.815 194.967 209.848C191.364 212.609 186.651 214.517 182.68 214.919C188.515 204.323 196.826 193.57 202.456 193.57Z" fill="#458244"/>
<path d="M226.968 210.827C234.05 213.098 229.465 202.674 225.888 194.761C222.311 186.847 214.572 171.961 202.694 171.961C192.96 171.961 174.515 206.89 178.835 210.176C182.29 212.805 190.402 206.361 195.801 202.223C197.421 205.875 199.867 211.964 203.754 212.257C207.642 212.549 209.909 205.509 212.969 202.223C214.049 203.44 220.512 208.756 226.968 210.827Z" fill="#83C082"/>
<path d="M203.738 170.485C209.482 170.485 214.335 173.69 218.295 178.004C218.498 178.516 218.701 179.005 218.909 179.463C221.949 186.165 225.321 192.961 225.001 192.928C219.514 192.377 213.153 189.955 212.235 188.924C210.354 192.501 207.465 194.779 204.161 194.532C200.857 194.285 197.842 191.533 196.466 188.44C191.877 191.945 183.365 193.249 183.962 192.288C184.979 190.651 185.926 188.842 186.832 186.942C192.307 178.166 198.98 170.485 203.738 170.485Z" fill="#458244"/>
<path d="M224.68 187.157C229.81 188.921 225.982 179.825 223.077 173.371C220.172 166.917 212.842 156.74 203.22 156.055C194.221 155.416 179.492 183.515 182.999 186.196C185.806 188.34 193.237 184.113 197.622 180.737C198.938 183.715 200.924 188.682 204.081 188.921C207.238 189.159 209.079 183.418 211.564 180.737C212.441 181.73 220.106 185.585 224.68 187.157Z" fill="#66A865"/>
<path d="M203.098 149.965C206.504 149.965 209.597 151.093 212.376 152.91C212.416 152.996 212.457 153.083 212.497 153.171C216.383 161.769 222.436 171.538 222.115 171.447C219.87 170.805 212.708 168.921 211.535 167.599C208.056 171.962 206.405 174.653 204.481 174.653C201.588 174.653 200.417 171 197.428 167.599C191.57 172.088 187.5 171.769 187.488 171.768C187.488 171.768 189.654 163.743 193.448 156.484C196.904 152.573 200.326 149.965 203.098 149.965Z" fill="#458244"/>
<path d="M219.848 166.933C224.189 169.431 221.521 161.356 219.125 155.943C216.728 150.529 211.543 140.347 203.585 140.347C197.063 140.347 184.705 164.24 187.599 166.488C189.915 168.286 195.349 163.878 198.967 161.047C200.052 163.545 201.691 167.711 204.295 167.911C206.9 168.111 208.419 163.295 210.469 161.047C211.192 161.88 216.375 164.935 219.848 166.933Z" fill="#83C082"/>
<path d="M20.179 205.112H27.6018L33.6514 262.895H14.034L20.179 205.112Z" fill="#93642D"/>
<path d="M20.1257 205.112H27.5L30.7062 236.213H16.9195L20.1257 205.112Z" fill="#714D22"/>
<path d="M46.1395 230.934C53.5392 231.68 48.6366 222.781 45.0596 214.868C41.4826 206.955 33.7438 192.069 21.8653 192.069C12.1315 192.069 -6.31319 226.997 -1.99372 230.283C1.46185 232.912 9.57334 230.849 14.9727 226.711C16.5925 230.363 19.0381 232.072 22.9257 232.364C26.8132 232.656 29.0805 229.997 32.1402 226.711C33.22 227.928 39.6837 230.283 46.1395 230.934Z" fill="#66A865"/>
<path d="M21.6275 193.57C32.5728 193.57 40.2822 205.203 44.7427 213.982C38.9398 212.961 33.781 210.964 32.7906 209.848C30.3856 214.436 27.2349 218.575 23.0113 218.257C18.7877 217.94 15.8981 213.815 14.1382 209.848C10.5358 212.609 5.82208 214.517 1.85114 214.919C7.68603 204.323 15.998 193.57 21.6275 193.57Z" fill="#458244"/>
<path d="M46.1395 210.827C53.2214 213.098 48.6366 202.674 45.0596 194.761C41.4826 186.847 33.7438 171.961 21.8653 171.961C12.1315 171.961 -6.31319 206.89 -1.99372 210.176C1.46185 212.805 9.57334 206.361 14.9727 202.223C16.5925 205.875 19.0382 211.964 22.9257 212.257C26.8132 212.549 29.0805 205.509 32.1402 202.223C33.22 203.44 39.6838 208.756 46.1395 210.827Z" fill="#83C082"/>
<path d="M22.9096 170.485C28.6538 170.485 33.5062 173.69 37.4663 178.004C37.6696 178.516 37.8728 179.005 38.0805 179.463C41.1204 186.165 44.493 192.961 44.1723 192.928C38.6859 192.377 32.3244 189.955 31.4067 188.924C29.5255 192.501 26.6361 194.779 23.3325 194.532C20.0287 194.285 17.0138 191.533 15.6372 188.44C11.0487 191.945 2.53634 193.249 3.13327 192.288C4.15055 190.651 5.09789 188.842 6.00338 186.942C11.4784 178.166 18.1518 170.485 22.9096 170.485Z" fill="#458244"/>
<path d="M43.8518 187.157C48.9817 188.921 45.1535 179.825 42.2487 173.371C39.3438 166.917 32.0134 156.74 22.3911 156.055C13.3927 155.416 -1.33695 183.515 2.17091 186.196C4.9772 188.34 12.4087 184.113 16.7936 180.737C18.109 183.715 20.0952 188.682 23.2522 188.921C26.4093 189.159 28.2506 183.418 30.7354 180.737C31.6123 181.73 39.2775 185.585 43.8518 187.157Z" fill="#66A865"/>
<path d="M22.269 149.965C25.6754 149.965 28.7681 151.093 31.5474 152.91C31.587 152.996 31.6285 153.083 31.6685 153.171C35.5547 161.769 41.6072 171.538 41.2866 171.447C39.042 170.805 31.8797 168.921 30.7065 167.599C27.2273 171.962 25.5765 174.652 23.6528 174.653C20.7591 174.653 19.5881 171 16.5991 167.599C10.7435 172.087 6.67435 171.769 6.65967 171.768C6.65967 171.768 8.82562 163.743 12.6196 156.484C16.0759 152.573 19.4974 149.965 22.269 149.965Z" fill="#458244"/>
<path d="M39.0195 166.933C43.3605 169.431 40.6925 161.356 38.296 155.943C35.8995 150.529 30.7146 140.347 22.7561 140.347C16.2346 140.347 3.87697 164.24 6.77095 166.488C9.08614 168.286 14.5207 163.878 18.1382 161.047C19.2234 163.545 20.862 167.711 23.4666 167.911C26.0712 168.111 27.5903 163.295 29.6402 161.047C30.3637 161.88 35.5467 164.935 39.0195 166.933Z" fill="#83C082"/>
<rect x="58.6495" y="222.413" width="9.1361" height="43.0702" fill="#93642D"/>
<rect x="58.674" y="206.489" width="9.1361" height="43.0702" fill="#714D22"/>
<rect x="47.0051" y="205.565" width="33.064" height="33.064" rx="16.532" fill="#83C082"/>
<rect x="48.6696" y="184.51" width="30.258" height="30.258" rx="15.129" fill="#66A865"/>
<rect x="50.8885" y="168.166" width="25.5893" height="25.5893" rx="12.7947" fill="#83C082"/>
<path d="M79.9285 220.309C80.0082 220.968 80.0505 221.638 80.0505 222.318C80.0505 231.448 72.6486 238.85 63.5183 238.85C54.3879 238.85 46.9861 231.448 46.9861 222.318C46.9861 221.638 47.0274 220.968 47.1072 220.309C48.0985 228.492 55.068 234.832 63.5183 234.832C71.9685 234.832 78.9371 228.492 79.9285 220.309Z" fill="#679A66"/>
<rect x="327.663" y="213.247" width="9.1361" height="43.0702" fill="#93642D"/>
<rect x="327.688" y="197.323" width="9.1361" height="43.0702" fill="#714D22"/>
<rect x="316.019" y="196.399" width="33.064" height="33.064" rx="16.532" fill="#83C082"/>
<rect x="317.684" y="175.344" width="30.258" height="30.258" rx="15.129" fill="#66A865"/>
<rect x="319.902" y="159" width="25.5893" height="25.5893" rx="12.7947" fill="#83C082"/>
<path d="M348.942 211.143C349.022 211.801 349.064 212.472 349.064 213.152C349.064 222.282 341.662 229.684 332.532 229.684C323.402 229.684 316 222.282 316 213.152C316 212.472 316.041 211.801 316.121 211.143C317.112 219.326 324.082 225.666 332.532 225.666C340.982 225.666 347.951 219.326 348.942 211.143Z" fill="#679A66"/>
<path d="M141.314 204.128H148.45L154.266 259.681H135.406L141.314 204.128Z" fill="#93642D"/>
<path d="M141.263 204.128H148.353L151.435 234.028H138.18L141.263 204.128Z" fill="#714D22"/>
<path d="M128.274 162.915C136.556 162.915 143.269 169.629 143.269 177.91V178.981C143.269 179.544 143.237 180.1 143.177 180.646C149.418 182.46 153.98 188.22 153.98 195.047V196.118C153.98 204.399 147.266 211.113 138.985 211.113C134.506 211.113 130.486 209.148 127.738 206.034C124.99 209.147 120.972 211.113 116.493 211.113C108.212 211.113 101.498 204.399 101.498 196.118V195.047C101.498 187.845 106.575 181.829 113.344 180.383C113.302 179.921 113.279 179.454 113.279 178.981V177.91C113.279 169.629 119.993 162.915 128.274 162.915Z" fill="#66A865"/>
<path d="M126.722 225.518C120.608 220.435 119.773 211.358 124.855 205.245L125.513 204.454C125.858 204.039 126.224 203.649 126.604 203.282C123.109 198.113 123.277 191.06 127.467 186.021L128.124 185.23C133.207 179.117 142.283 178.282 148.396 183.365C151.703 186.114 153.465 190.031 153.582 194.016C157.521 193.404 161.694 194.42 165 197.169C171.113 202.252 171.949 211.328 166.867 217.441L166.209 218.232C161.789 223.548 154.349 224.873 148.464 221.786C148.212 222.153 147.942 222.512 147.652 222.861L146.994 223.652C141.911 229.765 132.835 230.6 126.722 225.518Z" fill="#66A865"/>
<path d="M158.562 157.917C166.935 157.917 173.723 164.704 173.723 173.078V174.161C173.723 174.73 173.69 175.292 173.629 175.844C179.94 177.678 184.553 183.503 184.553 190.406V191.489C184.553 199.862 177.764 206.65 169.391 206.65C164.862 206.65 160.798 204.663 158.02 201.515C155.242 204.663 151.177 206.65 146.649 206.65C138.276 206.65 131.488 199.862 131.488 191.489V190.406C131.488 183.124 136.621 177.042 143.466 175.58C143.423 175.113 143.4 174.639 143.4 174.161V173.078C143.4 164.704 150.188 157.917 158.562 157.917Z" fill="#66A865"/>
<path d="M153.04 136.606C161.413 136.606 168.201 143.394 168.201 151.767V152.85C168.201 153.419 168.168 153.981 168.107 154.534C174.418 156.368 179.031 162.193 179.031 169.096V170.179C179.031 178.552 172.242 185.34 163.869 185.34C159.34 185.34 155.276 183.353 152.498 180.205C149.72 183.353 145.656 185.34 141.127 185.34C132.754 185.34 125.966 178.552 125.966 170.179V169.096C125.966 161.814 131.099 155.732 137.944 154.269C137.901 153.802 137.878 153.329 137.878 152.85V151.767C137.878 143.394 144.667 136.606 153.04 136.606Z" fill="#66A865"/>
<path d="M128.645 145.559C135.515 145.559 141.085 151.129 141.085 158V158.888C141.085 159.355 141.057 159.816 141.007 160.269C146.185 161.773 149.971 166.553 149.971 172.216V173.105C149.971 179.976 144.401 185.545 137.53 185.546C133.813 185.546 130.479 183.913 128.199 181.329C125.92 183.913 122.587 185.545 118.87 185.546C112 185.546 106.43 179.976 106.43 173.105V172.216C106.43 166.242 110.642 161.251 116.259 160.051C116.223 159.668 116.204 159.281 116.204 158.888V158C116.204 151.129 121.774 145.559 128.645 145.559Z" fill="#66A865"/>
<path d="M155.676 163.596C150.682 168.314 142.808 168.092 138.089 163.098L137.479 162.452C137.158 162.113 136.862 161.759 136.587 161.395C131.79 163.858 125.756 162.984 121.867 158.867L121.256 158.221C116.537 153.228 116.76 145.354 121.754 140.635C124.456 138.082 128 136.978 131.432 137.291C131.314 133.848 132.616 130.372 135.317 127.819C140.311 123.1 148.185 123.323 152.903 128.317L153.514 128.963C157.617 133.306 157.983 139.826 154.725 144.556C155.014 144.81 155.294 145.078 155.563 145.363L156.174 146.009C160.892 151.003 160.669 158.877 155.676 163.596Z" fill="#83C082"/>
<path d="M183.189 184.396C184.065 186.312 184.553 188.442 184.553 190.686V191.769C184.553 199.904 178.145 206.54 170.102 206.912C170.524 210.669 169.474 214.585 166.866 217.721L166.21 218.512C161.79 223.828 154.349 225.153 148.464 222.066C148.212 222.433 147.941 222.792 147.651 223.14L146.994 223.931C141.911 230.045 132.835 230.88 126.721 225.798C122.049 221.912 120.459 215.694 122.24 210.249C120.47 210.985 118.529 211.393 116.493 211.393C108.212 211.393 101.498 204.679 101.498 196.398V195.327C101.498 192.183 102.466 189.265 104.12 186.854C106.502 191.984 111.699 195.541 117.726 195.541C120.431 195.541 122.967 194.822 125.157 193.568C124.988 197.887 126.758 202.233 130.339 205.21C136.452 210.292 145.528 209.457 150.611 203.344L151.268 202.553C151.558 202.205 151.829 201.845 152.081 201.478C157.966 204.565 165.406 203.24 169.826 197.925L170.483 197.134C172.059 195.238 173.065 193.057 173.522 190.799C177.535 190.022 180.98 187.662 183.189 184.396Z" fill="#458244"/>
<rect x="225.097" y="188.446" width="37.9881" height="37.9881" rx="18.994" fill="#66A865"/>
<path d="M253.588 201.108C253.588 195.863 257.84 191.611 263.085 191.611C263.085 196.856 258.833 201.108 253.588 201.108Z" fill="#66A865"/>
<path d="M238.687 197.739C233.817 197.28 230.241 192.96 230.7 188.09C235.57 188.549 239.146 192.869 238.687 197.739Z" fill="#66A865"/>
<path d="M231.271 213.586C227.526 216.733 221.939 216.247 218.792 212.502C222.537 209.356 228.124 209.841 231.271 213.586Z" fill="#66A865"/>
<path d="M266.504 216.611C262.758 219.758 257.171 219.273 254.025 215.527C257.77 212.381 263.357 212.866 266.504 216.611Z" fill="#66A865"/>
<rect x="285.879" y="213.212" width="37.9881" height="37.9881" rx="18.994" transform="rotate(119.838 285.879 213.212)" fill="#66A865"/>
<path d="M260.719 231.626C265.269 234.235 266.842 240.039 264.232 244.589C259.682 241.979 258.11 236.175 260.719 231.626Z" fill="#66A865"/>
<path d="M271.056 220.376C273.877 216.38 279.404 215.428 283.4 218.249C280.579 222.245 275.052 223.197 271.056 220.376Z" fill="#66A865"/>
<path d="M261 206.058C260.134 201.244 263.334 196.639 268.149 195.773C269.015 200.588 265.814 205.192 261 206.058Z" fill="#66A865"/>
<path d="M240.846 235.116C239.98 230.301 243.18 225.696 247.995 224.83C248.861 229.645 245.66 234.249 240.846 235.116Z" fill="#66A865"/>
<rect x="303.923" y="199.679" width="37.9881" height="37.9881" rx="18.994" transform="rotate(119.838 303.923 199.679)" fill="#66A865"/>
<path d="M278.764 218.092C283.313 220.702 284.886 226.506 282.276 231.056C277.727 228.446 276.154 222.642 278.764 218.092Z" fill="#66A865"/>
<path d="M289.1 206.843C291.922 202.847 297.448 201.895 301.444 204.716C298.623 208.712 293.096 209.664 289.1 206.843Z" fill="#66A865"/>
<path d="M279.044 192.525C278.178 187.711 281.379 183.106 286.193 182.24C287.059 187.054 283.858 191.659 279.044 192.525Z" fill="#66A865"/>
<path d="M258.89 221.582C258.024 216.768 261.225 212.163 266.039 211.297C266.905 216.111 263.704 220.716 258.89 221.582Z" fill="#66A865"/>
<rect x="294.482" y="182.331" width="35.5578" height="35.5578" rx="17.7789" transform="rotate(119.838 294.482 182.331)" fill="#66A865"/>
<path d="M270.932 199.567C275.191 202.009 276.663 207.442 274.22 211.701C269.962 209.258 268.49 203.825 270.932 199.567Z" fill="#66A865"/>
<path d="M280.608 189.037C283.249 185.296 288.422 184.405 292.162 187.046C289.521 190.786 284.348 191.678 280.608 189.037Z" fill="#66A865"/>
<path d="M271.195 175.635C270.384 171.129 273.38 166.818 277.886 166.008C278.697 170.514 275.701 174.824 271.195 175.635Z" fill="#66A865"/>
<path d="M252.33 202.833C251.519 198.327 254.515 194.017 259.022 193.206C259.832 197.712 256.836 202.023 252.33 202.833Z" fill="#66A865"/>
<path d="M295.43 199.187C295.993 200.476 296.414 201.824 296.681 203.203C298.347 203.26 300.016 203.785 301.48 204.818C300.333 206.442 298.739 207.563 296.983 208.132C296.791 210.907 295.985 213.682 294.508 216.257C291.984 220.657 287.967 223.664 283.461 225.007C283.774 227.056 283.423 229.221 282.312 231.158C280.264 229.983 278.822 228.16 278.09 226.097C277.688 227.358 277.149 228.596 276.464 229.79C273.94 234.19 269.922 237.198 265.416 238.541C265.729 240.589 265.379 242.754 264.268 244.691C262.123 243.461 260.64 241.52 259.945 239.336C256.748 239.331 253.509 238.52 250.537 236.816C248.617 235.715 246.962 234.328 245.595 232.741C244.358 233.988 242.741 234.883 240.881 235.217C240.412 232.608 241.139 230.062 242.668 228.137C242.415 227.574 242.189 227 241.993 226.416C235.328 225.67 229.706 221.478 226.952 215.662C223.999 216.112 220.889 215.058 218.828 212.604C220.723 211.012 223.09 210.351 225.373 210.571C225.215 209.585 225.132 208.573 225.132 207.542C225.132 205.786 225.371 204.087 225.817 202.473C228.718 209.082 235.273 213.724 242.926 213.839C244.544 216.596 246.88 218.983 249.852 220.688C258.951 225.907 270.559 222.761 275.779 213.662C275.889 213.47 275.993 213.276 276.096 213.082C283.027 213.451 289.909 209.995 293.599 203.563C294.407 202.154 295.014 200.684 295.43 199.187Z" fill="#458244"/>
<path d="M260.466 221.918H265.729L270.018 262.887H256.109L260.466 221.918Z" fill="#93642D"/>
<path d="M260.428 221.918H265.767L268.027 243.969H258.155L260.428 221.918Z" fill="#714D22"/>
<path fill-rule="evenodd" clip-rule="evenodd" d="M258.988 239.376C250.757 233.45 249.757 224.545 250.332 220.658L254.051 221.209C253.624 224.089 254.378 231.425 261.184 236.325L258.988 239.376Z" fill="#714D22"/>
<path fill-rule="evenodd" clip-rule="evenodd" d="M265.204 233.361C273.435 227.435 274.436 218.531 273.86 214.644L270.141 215.195C270.568 218.074 269.814 225.41 263.008 230.31L265.204 233.361Z" fill="#714D22"/>
<rect x="279.48" y="207.555" width="27.2208" height="27.2208" rx="13.6104" transform="rotate(119.838 279.48 207.555)" fill="#66A865"/>
<path d="M261.452 220.75C264.712 222.62 265.839 226.779 263.969 230.039C260.709 228.169 259.582 224.01 261.452 220.75Z" fill="#66A865"/>
<path d="M268.859 212.689C270.88 209.825 274.84 209.143 277.704 211.165C275.682 214.028 271.722 214.711 268.859 212.689Z" fill="#66A865"/>
<path d="M261.653 202.429C261.032 198.98 263.325 195.68 266.775 195.059C267.396 198.509 265.102 201.809 261.653 202.429Z" fill="#66A865"/>
<path d="M247.211 223.251C246.59 219.801 248.884 216.501 252.334 215.88C252.954 219.33 250.661 222.63 247.211 223.251Z" fill="#66A865"/>
<rect x="234.9" y="164.011" width="35.5578" height="35.5578" rx="17.7789" transform="rotate(8.46442 234.9 164.011)" fill="#83C082"/>
<path d="M259.533 179.66C260.256 174.804 264.778 171.454 269.634 172.176C268.912 177.032 264.389 180.383 259.533 179.66Z" fill="#83C082"/>
<path d="M246.201 174.488C241.756 173.392 239.041 168.899 240.137 164.454C244.582 165.55 247.298 170.042 246.201 174.488Z" fill="#83C082"/>
<path d="M237.152 188.138C233.251 190.535 228.145 189.316 225.748 185.415C229.649 183.018 234.755 184.237 237.152 188.138Z" fill="#83C082"/>
<path d="M269.355 195.793C265.454 198.19 260.348 196.971 257.951 193.07C261.852 190.673 266.957 191.892 269.355 195.793Z" fill="#83C082"/>
<rect x="369.53" y="214.178" width="9.88617" height="46.6062" fill="#93642D"/>
<rect x="369.556" y="196.946" width="9.88617" height="46.6062" fill="#714D22"/>
<path d="M395.861 215.795C395.861 227.988 385.976 237.873 373.783 237.873C361.59 237.873 351.705 227.988 351.705 215.795C351.705 203.602 361.59 178.998 373.783 178.998C385.976 178.998 395.861 203.602 395.861 215.795Z" fill="#66A865"/>
<path d="M395.19 210.62C395.494 212.495 395.656 214.245 395.656 215.795C395.656 227.988 385.771 237.873 373.578 237.873C361.385 237.873 351.5 227.988 351.5 215.795C351.5 214.245 351.66 212.495 351.964 210.62C354.051 220.644 362.935 228.175 373.578 228.175C384.221 228.175 393.103 220.644 395.19 210.62Z" fill="#458244"/>
<path d="M392.248 187.527C392.248 197.431 384.062 205.459 373.964 205.459C363.866 205.459 355.68 197.431 355.68 187.527C355.68 177.623 363.866 157.64 373.964 157.64C384.062 157.64 392.248 177.623 392.248 187.527Z" fill="#83C082"/>
<path d="M298.497 234.711H302.656L306.047 267.092H295.053L298.497 234.711Z" fill="#93642D"/>
<path d="M298.467 234.711H302.599L304.396 252.139H296.67L298.467 234.711Z" fill="#714D22"/>
<path d="M313.045 249.181C317.192 249.599 314.444 244.612 312.44 240.178C310.435 235.743 306.098 227.401 299.442 227.401C293.987 227.401 283.65 246.975 286.071 248.817C288.008 250.29 292.553 249.134 295.579 246.815C296.487 248.861 297.857 249.819 300.036 249.983C302.214 250.146 303.485 248.657 305.2 246.815C305.805 247.497 309.427 248.817 313.045 249.181Z" fill="#83C082"/>
<path d="M299.308 228.242C305.44 228.242 309.756 234.759 312.257 239.678C309.007 239.106 306.119 237.99 305.564 237.365C304.216 239.936 302.451 242.255 300.084 242.077C297.717 241.899 296.098 239.588 295.112 237.365C293.093 238.912 290.451 239.981 288.226 240.206C291.496 234.268 296.154 228.242 299.308 228.242Z" fill="#458244"/>
<path d="M313.045 237.913C317.014 239.186 314.444 233.344 312.44 228.91C310.435 224.475 306.098 216.133 299.442 216.133C293.987 216.133 283.65 235.707 286.071 237.549C288.008 239.022 292.553 235.411 295.579 233.092C296.487 235.138 297.857 238.551 300.036 238.715C302.214 238.878 303.485 234.933 305.2 233.092C305.805 233.774 309.427 236.753 313.045 237.913Z" fill="#66A865"/>
<path d="M300.027 215.306C303.248 215.306 305.967 217.104 308.187 219.523C308.3 219.809 308.413 220.082 308.529 220.337C310.232 224.091 312.121 227.898 311.943 227.883C308.868 227.574 305.303 226.216 304.789 225.639C303.734 227.643 302.115 228.92 300.263 228.781C298.412 228.642 296.723 227.1 295.952 225.367C293.38 227.331 288.609 228.063 288.944 227.523C289.51 226.613 290.037 225.608 290.541 224.552C293.611 219.625 297.357 215.306 300.027 215.306Z" fill="#458244"/>
<path d="M311.763 224.649C314.638 225.637 312.492 220.54 310.864 216.923C309.237 213.306 306.015 206.526 300.623 206.142C295.58 205.784 286.439 222.608 288.405 224.11C289.978 225.312 294.142 222.943 296.599 221.051C297.337 222.72 298.45 225.504 300.219 225.637C301.988 225.771 303.02 222.553 304.412 221.051C304.904 221.607 309.199 223.768 311.763 224.649Z" fill="#83C082"/>
<rect x="81.9741" y="213.666" width="20.8516" height="20.8516" rx="10.4258" fill="#66A865"/>
<path d="M97.6127 220.616C97.6127 217.737 99.9466 215.403 102.826 215.403C102.826 218.282 100.492 220.616 97.6127 220.616Z" fill="#66A865"/>
<path d="M89.4335 218.767C86.7603 218.515 84.7977 216.144 85.0497 213.47C87.7229 213.722 89.6856 216.094 89.4335 218.767Z" fill="#66A865"/>
<path d="M85.3627 227.465C83.307 229.193 80.2403 228.926 78.5131 226.87C80.5689 225.143 83.6356 225.41 85.3627 227.465Z" fill="#66A865"/>
<path d="M104.702 229.126C102.646 230.853 99.5795 230.587 97.8523 228.531C99.9081 226.804 102.975 227.07 104.702 229.126Z" fill="#66A865"/>
<rect x="115.337" y="227.26" width="20.8516" height="20.8516" rx="10.4258" transform="rotate(119.838 115.337 227.26)" fill="#66A865"/>
<path d="M101.527 237.367C104.024 238.8 104.888 241.985 103.455 244.483C100.958 243.05 100.095 239.865 101.527 237.367Z" fill="#66A865"/>
<path d="M107.201 231.192C108.749 228.999 111.783 228.476 113.976 230.025C112.428 232.218 109.394 232.741 107.201 231.192Z" fill="#66A865"/>
<path d="M101.681 223.333C101.205 220.691 102.962 218.163 105.605 217.688C106.08 220.33 104.323 222.858 101.681 223.333Z" fill="#66A865"/>
<path d="M90.6183 239.283C90.1429 236.64 91.8998 234.113 94.5424 233.637C95.0178 236.28 93.2609 238.807 90.6183 239.283Z" fill="#66A865"/>
<rect x="124.62" y="222.486" width="20.8516" height="20.8516" rx="10.4258" transform="rotate(119.838 124.62 222.486)" fill="#66A865"/>
<path d="M110.81 232.593C113.307 234.026 114.171 237.211 112.738 239.709C110.241 238.276 109.378 235.09 110.81 232.593Z" fill="#66A865"/>
<path d="M116.484 226.418C118.033 224.225 121.066 223.702 123.26 225.251C121.711 227.444 118.677 227.967 116.484 226.418Z" fill="#66A865"/>
<path d="M99.9014 234.509C99.4261 231.866 101.183 229.338 103.826 228.863C104.301 231.506 102.544 234.033 99.9014 234.509Z" fill="#66A865"/>
<path d="M109.786 208.493C114.461 211.174 116.077 217.138 113.396 221.813C110.714 226.488 104.75 228.104 100.075 225.423C95.4001 222.741 93.784 216.777 96.4655 212.102C99.1471 207.427 105.111 205.811 109.786 208.493Z" fill="#66A865"/>
<path d="M105.873 222.685C108.21 224.026 109.018 227.008 107.677 229.345C105.34 228.004 104.532 225.022 105.873 222.685Z" fill="#66A865"/>
<path d="M111.183 216.905C112.633 214.852 115.472 214.363 117.525 215.812C116.076 217.865 113.236 218.355 111.183 216.905Z" fill="#66A865"/>
<path d="M106.017 209.549C105.572 207.075 107.216 204.709 109.69 204.265C110.135 206.738 108.49 209.104 106.017 209.549Z" fill="#66A865"/>
<path d="M95.6617 224.478C95.2168 222.004 96.8613 219.638 99.3348 219.194C99.7798 221.667 98.1353 224.033 95.6617 224.478Z" fill="#66A865"/>
<rect x="88.3638" y="207.071" width="19.5176" height="19.5176" rx="9.75879" transform="rotate(8.46442 88.3638 207.071)" fill="#66A865"/>
<path d="M101.885 215.661C102.282 212.996 104.764 211.156 107.429 211.553C107.033 214.218 104.55 216.058 101.885 215.661Z" fill="#66A865"/>
<path d="M94.5672 212.822C92.127 212.22 90.6366 209.754 91.2383 207.314C93.6784 207.916 95.1688 210.382 94.5672 212.822Z" fill="#66A865"/>
<path d="M89.5999 220.314C87.4587 221.63 84.6562 220.961 83.3403 218.82C85.4816 217.504 88.2841 218.173 89.5999 220.314Z" fill="#66A865"/>
<path d="M107.276 224.516C105.135 225.832 102.332 225.163 101.016 223.021C103.158 221.706 105.96 222.375 107.276 224.516Z" fill="#66A865"/>
<rect x="115.732" y="219.474" width="19.5176" height="19.5176" rx="9.75879" transform="rotate(119.838 115.732 219.474)" fill="#66A865"/>
<path d="M102.805 228.934C105.143 230.275 105.951 233.257 104.61 235.595C102.272 234.254 101.464 231.272 102.805 228.934Z" fill="#66A865"/>
<path d="M108.116 223.155C109.565 221.102 112.405 220.612 114.458 222.062C113.008 224.115 110.169 224.604 108.116 223.155Z" fill="#66A865"/>
<path d="M102.949 215.798C102.504 213.325 104.149 210.959 106.622 210.514C107.067 212.988 105.423 215.353 102.949 215.798Z" fill="#66A865"/>
<path d="M92.5942 230.727C92.1493 228.254 93.7938 225.888 96.2673 225.443C96.7123 227.917 95.0678 230.282 92.5942 230.727Z" fill="#66A865"/>
<path d="M119.713 221.57C120.165 222.45 120.492 223.389 120.68 224.358C121.595 224.388 122.512 224.678 123.316 225.245C122.687 226.137 121.812 226.752 120.849 227.065C120.743 228.587 120.301 230.111 119.49 231.524C118.105 233.939 115.899 235.587 113.426 236.325C113.598 237.45 113.406 238.639 112.796 239.703C111.618 239.028 110.803 237.961 110.422 236.761C110.259 236.761 110.097 236.756 109.934 236.748C108.541 238.919 106.459 240.407 104.143 241.098C104.315 242.223 104.123 243.413 103.513 244.477C102.335 243.801 101.52 242.735 101.139 241.535C99.3844 241.533 97.6064 241.09 95.9756 240.155C94.9217 239.55 94.0152 238.787 93.2647 237.916C92.5857 238.602 91.6974 239.094 90.6758 239.278C90.4181 237.845 90.8171 236.445 91.6573 235.389C91.5186 235.08 91.3951 234.765 91.2872 234.445C87.6285 234.036 84.5426 231.735 83.0303 228.542C81.4095 228.79 79.7023 228.212 78.5704 226.865C79.6109 225.99 80.9105 225.628 82.1641 225.748C82.1379 225.584 82.1164 225.419 82.0977 225.252C83.0042 225.587 83.984 225.772 85.0069 225.772C86.7141 225.772 88.3004 225.259 89.6251 224.383C89.2437 227.06 90.2185 229.867 92.4503 231.723C95.8717 234.568 100.952 234.1 103.797 230.679L104.165 230.236C104.327 230.04 104.478 229.839 104.619 229.634C107.913 231.362 112.078 230.62 114.552 227.645L114.919 227.203C115.951 225.962 116.546 224.501 116.723 223.008C117.821 222.727 118.833 222.232 119.713 221.57Z" fill="#458244"/>
<path d="M99.2085 233.913H102.48L105.147 259.382H96.4999L99.2085 233.913Z" fill="#93642D"/>
<path d="M99.1851 233.913H102.504L103.909 247.621H97.7719L99.1851 233.913Z" fill="#714D22"/>
<path fill-rule="evenodd" clip-rule="evenodd" d="M102.154 241.026C107.271 237.342 107.893 231.807 107.535 229.391L105.223 229.733C105.488 231.523 105.02 236.083 100.789 239.13L102.154 241.026Z" fill="#714D22"/>
<rect x="88.8787" y="225.266" width="18.1058" height="18.1058" rx="9.05289" transform="rotate(-37.5969 88.8787 225.266)" fill="#66A865"/>
<path d="M103.32 221.763C101.795 219.782 102.164 216.94 104.145 215.415C105.67 217.396 105.301 220.238 103.32 221.763Z" fill="#66A865"/>
<path d="M96.7131 224.824C94.7405 226.066 92.1339 225.475 90.8912 223.502C92.8638 222.259 95.4704 222.851 96.7131 224.824Z" fill="#66A865"/>
<path d="M98.5206 232.964C98.0213 235.242 95.7703 236.683 93.493 236.184C93.9923 233.906 96.2433 232.465 98.5206 232.964Z" fill="#66A865"/>
<path d="M112.705 223.862C112.206 226.139 109.955 227.58 107.678 227.081C108.177 224.804 110.428 223.362 112.705 223.862Z" fill="#66A865"/>
<rect x="89.5272" y="207.377" width="14.25" height="14.25" rx="7.12498" transform="rotate(8.46442 89.5272 207.377)" fill="#83C082"/>
<path d="M99.3991 213.649C99.6887 211.703 101.501 210.36 103.447 210.649C103.158 212.595 101.345 213.938 99.3991 213.649Z" fill="#83C082"/>
<path d="M94.0563 211.576C92.2747 211.137 91.1866 209.336 91.6258 207.555C93.4074 207.994 94.4956 209.794 94.0563 211.576Z" fill="#83C082"/>
<path d="M90.4297 217.046C88.8663 218.007 86.8202 217.518 85.8595 215.955C87.4229 214.994 89.469 215.483 90.4297 217.046Z" fill="#83C082"/>
<path d="M103.335 220.114C101.772 221.075 99.7255 220.586 98.7649 219.023C100.328 218.062 102.374 218.55 103.335 220.114Z" fill="#83C082"/>
<defs>
<linearGradient id="paint0_linear_33_54" x1="199" y1="0" x2="199" y2="351" gradientUnits="userSpaceOnUse">
<stop stop-color="white"/>
<stop offset="1" stop-color="#78D8A4"/>
</linearGradient>
</defs>
</svg>
